# MagicaVoxel @ Ephtracy

# material
mtllib monkeyRocket.mtl
usemtl palette

# normals
vn -1 0 0
vn 1 0 0
vn 0 0 1
vn 0 0 -1
vn 0 -1 0
vn 0 1 0

# texcoords
vt 0.177734 0.5
vt 0.373047 0.5
vt 0.958984 0.5
vt 0.994141 0.5

# verts
v -5 0 3
v -5 0 -3
v -5 11 5
v -5 11 3
v -5 15 5
v -5 15 3
v -5 18 3
v -5 18 1
v -5 18 -1
v -5 18 -3
v -5 19 1
v -5 19 -1
v -4 0 4
v -4 0 3
v -4 0 -3
v -4 0 -4
v -4 10 6
v -4 10 4
v -4 11 6
v -4 11 5
v -4 11 4
v -4 11 3
v -4 15 6
v -4 15 5
v -4 15 4
v -4 15 3
v -4 16 6
v -4 16 4
v -4 18 4
v -4 18 3
v -4 18 1
v -4 18 -1
v -4 18 -3
v -4 18 -4
v -4 19 3
v -4 19 1
v -4 19 -1
v -4 19 -3
v -4 20 1
v -4 20 -1
v -3 0 5
v -3 0 4
v -3 0 -4
v -3 0 -5
v -3 9 6
v -3 9 5
v -3 10 6
v -3 10 5
v -3 10 4
v -3 11 5
v -3 11 4
v -3 12 5
v -3 12 4
v -3 16 5
v -3 16 4
v -3 18 5
v -3 18 4
v -3 18 3
v -3 18 -3
v -3 18 -4
v -3 18 -5
v -3 19 4
v -3 19 3
v -3 19 1
v -3 19 -1
v -3 19 -3
v -3 19 -4
v -3 20 3
v -3 20 1
v -3 20 -1
v -3 20 -3
v -2 8 6
v -2 8 5
v -2 9 6
v -2 9 5
v -2 10 6
v -2 10 5
v -2 11 6
v -2 11 5
v -2 16 6
v -2 16 5
v -2 17 6
v -2 17 5
v -2 18 5
v -2 18 4
v -2 18 -4
v -2 18 -5
v -2 19 5
v -2 19 4
v -2 19 3
v -2 19 -3
v -2 19 -4
v -2 19 -5
v -2 20 4
v -2 20 3
v -2 20 2
v -2 20 -2
v -2 20 -3
v -2 20 -4
v -2 21 2
v -2 21 -2
v -1 11 6
v -1 11 5
v -1 12 6
v -1 12 5
v -1 20 3
v -1 20 2
v -1 20 -2
v -1 20 -3
v -1 21 3
v -1 21 2
v -1 21 1
v -1 21 -1
v -1 21 -2
v -1 21 -3
v -1 22 1
v -1 22 -1
v 1 0 5
v 1 0 -5
v 1 1 5
v 1 1 -5
v 2 15 6
v 2 15 5
v 2 15 4
v 2 16 6
v 2 16 5
v 2 16 4
v 3 10 6
v 3 10 5
v 3 11 6
v 3 11 5
v 4 11 5
v 4 11 4
v 4 12 5
v 4 12 4
v -4 11 5
v -4 11 4
v -4 12 5
v -4 12 4
v -3 10 6
v -3 10 5
v -3 11 6
v -3 11 5
v -2 15 6
v -2 15 5
v -2 15 4
v -2 16 6
v -2 16 5
v -2 16 4
v -1 0 5
v -1 0 -5
v -1 1 5
v -1 1 -5
v 1 11 6
v 1 11 5
v 1 12 6
v 1 12 5
v 1 20 3
v 1 20 2
v 1 20 -2
v 1 20 -3
v 1 21 3
v 1 21 2
v 1 21 1
v 1 21 -1
v 1 21 -2
v 1 21 -3
v 1 22 1
v 1 22 -1
v 2 8 6
v 2 8 5
v 2 9 6
v 2 9 5
v 2 10 6
v 2 10 5
v 2 11 6
v 2 11 5
v 2 16 6
v 2 16 5
v 2 17 6
v 2 17 5
v 2 18 5
v 2 18 4
v 2 18 -4
v 2 18 -5
v 2 19 5
v 2 19 4
v 2 19 3
v 2 19 -3
v 2 19 -4
v 2 19 -5
v 2 20 4
v 2 20 3
v 2 20 2
v 2 20 -2
v 2 20 -3
v 2 20 -4
v 2 21 2
v 2 21 -2
v 3 0 5
v 3 0 4
v 3 0 -4
v 3 0 -5
v 3 9 6
v 3 9 5
v 3 10 6
v 3 10 5
v 3 10 4
v 3 11 5
v 3 11 4
v 3 12 5
v 3 12 4
v 3 16 5
v 3 16 4
v 3 18 5
v 3 18 4
v 3 18 3
v 3 18 -3
v 3 18 -4
v 3 18 -5
v 3 19 4
v 3 19 3
v 3 19 1
v 3 19 -1
v 3 19 -3
v 3 19 -4
v 3 20 3
v 3 20 1
v 3 20 -1
v 3 20 -3
v 4 0 4
v 4 0 3
v 4 0 -3
v 4 0 -4
v 4 10 6
v 4 10 4
v 4 11 6
v 4 11 5
v 4 11 4
v 4 11 3
v 4 15 6
v 4 15 5
v 4 15 4
v 4 15 3
v 4 16 6
v 4 16 4
v 4 18 4
v 4 18 3
v 4 18 1
v 4 18 -1
v 4 18 -3
v 4 18 -4
v 4 19 3
v 4 19 1
v 4 19 -1
v 4 19 -3
v 4 20 1
v 4 20 -1
v 5 0 3
v 5 0 -3
v 5 11 5
v 5 11 3
v 5 15 5
v 5 15 3
v 5 18 3
v 5 18 1
v 5 18 -1
v 5 18 -3
v 5 19 1
v 5 19 -1
v -4 10 6
v -4 11 6
v -4 15 6
v -4 16 6
v -3 9 6
v -3 10 6
v -3 11 6
v -2 8 6
v -2 9 6
v -2 10 6
v -2 11 6
v -2 15 6
v -2 16 6
v -2 17 6
v -1 9 6
v -1 10 6
v -1 11 6
v -1 12 6
v 1 9 6
v 1 10 6
v 1 11 6
v 1 12 6
v 2 8 6
v 2 9 6
v 2 10 6
v 2 11 6
v 2 15 6
v 2 16 6
v 2 17 6
v 3 9 6
v 3 10 6
v 3 11 6
v 4 10 6
v 4 11 6
v 4 15 6
v 4 16 6
v -5 11 5
v -5 15 5
v -4 11 5
v -4 12 5
v -4 15 5
v -3 0 5
v -3 9 5
v -3 10 5
v -3 11 5
v -3 12 5
v -3 14 5
v -3 16 5
v -3 18 5
v -2 8 5
v -2 9 5
v -2 10 5
v -2 11 5
v -2 12 5
v -2 13 5
v -2 14 5
v -2 15 5
v -2 16 5
v -2 17 5
v -2 18 5
v -2 19 5
v -1 0 5
v -1 1 5
v -1 11 5
v -1 12 5
v -1 13 5
v -1 14 5
v 1 0 5
v 1 1 5
v 1 11 5
v 1 12 5
v 1 13 5
v 1 14 5
v 2 8 5
v 2 9 5
v 2 10 5
v 2 11 5
v 2 12 5
v 2 13 5
v 2 14 5
v 2 15 5
v 2 16 5
v 2 17 5
v 2 18 5
v 2 19 5
v 3 0 5
v 3 9 5
v 3 10 5
v 3 11 5
v 3 12 5
v 3 14 5
v 3 16 5
v 3 18 5
v 4 11 5
v 4 12 5
v 4 15 5
v 5 11 5
v 5 15 5
v -4 0 4
v -4 10 4
v -4 11 4
v -4 12 4
v -4 16 4
v -4 18 4
v -3 0 4
v -3 10 4
v -3 11 4
v -3 12 4
v -3 16 4
v -3 18 4
v -3 19 4
v -2 15 4
v -2 16 4
v -2 18 4
v -2 19 4
v -2 20 4
v 2 15 4
v 2 16 4
v 2 18 4
v 2 19 4
v 2 20 4
v 3 0 4
v 3 10 4
v 3 11 4
v 3 12 4
v 3 16 4
v 3 18 4
v 3 19 4
v 4 0 4
v 4 10 4
v 4 11 4
v 4 12 4
v 4 16 4
v 4 18 4
v -5 0 3
v -5 11 3
v -5 15 3
v -5 18 3
v -4 0 3
v -4 11 3
v -4 15 3
v -4 18 3
v -4 19 3
v -3 18 3
v -3 19 3
v -3 20 3
v -2 19 3
v -2 20 3
v -1 20 3
v -1 21 3
v 1 20 3
v 1 21 3
v 2 19 3
v 2 20 3
v 3 18 3
v 3 19 3
v 3 20 3
v 4 0 3
v 4 11 3
v 4 15 3
v 4 18 3
v 4 19 3
v 5 0 3
v 5 11 3
v 5 15 3
v 5 18 3
v -2 20 2
v -2 21 2
v -1 20 2
v -1 21 2
v 1 20 2
v 1 21 2
v 2 20 2
v 2 21 2
v -5 18 1
v -5 19 1
v -4 18 1
v -4 19 1
v -4 20 1
v -3 19 1
v -3 20 1
v -1 21 1
v -1 22 1
v 1 21 1
v 1 22 1
v 3 19 1
v 3 20 1
v 4 18 1
v 4 19 1
v 4 20 1
v 5 18 1
v 5 19 1
v -5 18 -1
v -5 19 -1
v -4 18 -1
v -4 19 -1
v -4 20 -1
v -3 19 -1
v -3 20 -1
v -1 21 -1
v -1 22 -1
v 1 21 -1
v 1 22 -1
v 3 19 -1
v 3 20 -1
v 4 18 -1
v 4 19 -1
v 4 20 -1
v 5 18 -1
v 5 19 -1
v -2 20 -2
v -2 21 -2
v -1 20 -2
v -1 21 -2
v 1 20 -2
v 1 21 -2
v 2 20 -2
v 2 21 -2
v -5 0 -3
v -5 18 -3
v -4 0 -3
v -4 18 -3
v -4 19 -3
v -3 18 -3
v -3 19 -3
v -3 20 -3
v -2 19 -3
v -2 20 -3
v -1 20 -3
v -1 21 -3
v 1 20 -3
v 1 21 -3
v 2 19 -3
v 2 20 -3
v 3 18 -3
v 3 19 -3
v 3 20 -3
v 4 0 -3
v 4 18 -3
v 4 19 -3
v 5 0 -3
v 5 18 -3
v -4 0 -4
v -4 18 -4
v -3 0 -4
v -3 18 -4
v -3 19 -4
v -2 18 -4
v -2 19 -4
v -2 20 -4
v 2 18 -4
v 2 19 -4
v 2 20 -4
v 3 0 -4
v 3 18 -4
v 3 19 -4
v 4 0 -4
v 4 18 -4
v -3 0 -5
v -3 18 -5
v -2 18 -5
v -2 19 -5
v -1 0 -5
v -1 1 -5
v 1 0 -5
v 1 1 -5
v 2 18 -5
v 2 19 -5
v 3 0 -5
v 3 18 -5
v -3 0 5
v -1 0 5
v 1 0 5
v 3 0 5
v -4 0 4
v -3 0 4
v 3 0 4
v 4 0 4
v -5 0 3
v -4 0 3
v 4 0 3
v 5 0 3
v -5 0 -3
v -4 0 -3
v 4 0 -3
v 5 0 -3
v -4 0 -4
v -3 0 -4
v 3 0 -4
v 4 0 -4
v -3 0 -5
v -1 0 -5
v 1 0 -5
v 3 0 -5
v -1 1 5
v 1 1 5
v -1 1 -5
v 1 1 -5
v -2 8 6
v 2 8 6
v -2 8 5
v 2 8 5
v -3 9 6
v -2 9 6
v 2 9 6
v 3 9 6
v -3 9 5
v -2 9 5
v 2 9 5
v 3 9 5
v -4 10 6
v -3 10 6
v 3 10 6
v 4 10 6
v -3 10 5
v 3 10 5
v -4 10 4
v -3 10 4
v 3 10 4
v 4 10 4
v -5 11 5
v -4 11 5
v 4 11 5
v 5 11 5
v -4 11 4
v 4 11 4
v -5 11 3
v -4 11 3
v 4 11 3
v 5 11 3
v -4 12 5
v -3 12 5
v 3 12 5
v 4 12 5
v -4 12 4
v -3 12 4
v 3 12 4
v 4 12 4
v -4 15 6
v -2 15 6
v 2 15 6
v 4 15 6
v -4 15 5
v -2 15 5
v 2 15 5
v 4 15 5
v -2 16 6
v 2 16 6
v -2 16 5
v 2 16 5
v -2 16 4
v 2 16 4
v -3 10 6
v -2 10 6
v 2 10 6
v 3 10 6
v -3 10 5
v -2 10 5
v 2 10 5
v 3 10 5
v -4 11 6
v -3 11 6
v -2 11 6
v -1 11 6
v 1 11 6
v 2 11 6
v 3 11 6
v 4 11 6
v -4 11 5
v -3 11 5
v -2 11 5
v -1 11 5
v 1 11 5
v 2 11 5
v 3 11 5
v 4 11 5
v -4 11 4
v -3 11 4
v 3 11 4
v 4 11 4
v -1 12 6
v 1 12 6
v -1 12 5
v 1 12 5
v -5 15 5
v -4 15 5
v -2 15 5
v 2 15 5
v 4 15 5
v 5 15 5
v -4 15 4
v -2 15 4
v 2 15 4
v 4 15 4
v -5 15 3
v -4 15 3
v 4 15 3
v 5 15 3
v -4 16 6
v -2 16 6
v 2 16 6
v 4 16 6
v -3 16 5
v -2 16 5
v 2 16 5
v 3 16 5
v -4 16 4
v -3 16 4
v 3 16 4
v 4 16 4
v -2 17 6
v 2 17 6
v -2 17 5
v 2 17 5
v -3 18 5
v -2 18 5
v 2 18 5
v 3 18 5
v -4 18 4
v -3 18 4
v -2 18 4
v 2 18 4
v 3 18 4
v 4 18 4
v -5 18 3
v -4 18 3
v -3 18 3
v 3 18 3
v 4 18 3
v 5 18 3
v -5 18 1
v -4 18 1
v 4 18 1
v 5 18 1
v -5 18 -1
v -4 18 -1
v 4 18 -1
v 5 18 -1
v -5 18 -3
v -4 18 -3
v -3 18 -3
v 3 18 -3
v 4 18 -3
v 5 18 -3
v -4 18 -4
v -3 18 -4
v -2 18 -4
v 2 18 -4
v 3 18 -4
v 4 18 -4
v -3 18 -5
v -2 18 -5
v 2 18 -5
v 3 18 -5
v -2 19 5
v 2 19 5
v -3 19 4
v -2 19 4
v 2 19 4
v 3 19 4
v -4 19 3
v -3 19 3
v -2 19 3
v 2 19 3
v 3 19 3
v 4 19 3
v -5 19 1
v -4 19 1
v -3 19 1
v 3 19 1
v 4 19 1
v 5 19 1
v -5 19 -1
v -4 19 -1
v -3 19 -1
v 3 19 -1
v 4 19 -1
v 5 19 -1
v -4 19 -3
v -3 19 -3
v -2 19 -3
v 2 19 -3
v 3 19 -3
v 4 19 -3
v -3 19 -4
v -2 19 -4
v 2 19 -4
v 3 19 -4
v -2 19 -5
v 2 19 -5
v -2 20 4
v 2 20 4
v -3 20 3
v -2 20 3
v -1 20 3
v 1 20 3
v 2 20 3
v 3 20 3
v -2 20 2
v -1 20 2
v 1 20 2
v 2 20 2
v -4 20 1
v -3 20 1
v 3 20 1
v 4 20 1
v -4 20 -1
v -3 20 -1
v 3 20 -1
v 4 20 -1
v -2 20 -2
v -1 20 -2
v 1 20 -2
v 2 20 -2
v -3 20 -3
v -2 20 -3
v -1 20 -3
v 1 20 -3
v 2 20 -3
v 3 20 -3
v -2 20 -4
v 2 20 -4
v -1 21 3
v 1 21 3
v -2 21 2
v -1 21 2
v 1 21 2
v 2 21 2
v -1 21 1
v 1 21 1
v -1 21 -1
v 1 21 -1
v -2 21 -2
v -1 21 -2
v 1 21 -2
v 2 21 -2
v -1 21 -3
v 1 21 -3
v -1 22 1
v 1 22 1
v -1 22 -1
v 1 22 -1

# faces
f 4/3/1 2/3/1 1/3/1
f 5/4/1 4/4/1 3/4/1
f 6/3/1 2/3/1 4/3/1
f 6/4/1 4/4/1 5/4/1
f 7/3/1 2/3/1 6/3/1
f 8/3/1 2/3/1 7/3/1
f 9/3/1 2/3/1 8/3/1
f 10/3/1 2/3/1 9/3/1
f 11/3/1 9/3/1 8/3/1
f 12/3/1 9/3/1 11/3/1
f 18/3/1 14/3/1 13/3/1
f 19/4/1 18/4/1 17/4/1
f 20/4/1 18/4/1 19/4/1
f 21/3/1 14/3/1 18/3/1
f 21/4/1 18/4/1 20/4/1
f 22/3/1 14/3/1 21/3/1
f 27/4/1 24/4/1 23/4/1
f 27/4/1 25/4/1 24/4/1
f 28/3/1 26/3/1 25/3/1
f 28/4/1 25/4/1 27/4/1
f 29/3/1 26/3/1 28/3/1
f 30/3/1 26/3/1 29/3/1
f 33/3/1 16/3/1 15/3/1
f 34/3/1 16/3/1 33/3/1
f 35/3/1 31/3/1 30/3/1
f 36/3/1 31/3/1 35/3/1
f 37/3/1 33/3/1 32/3/1
f 38/3/1 33/3/1 37/3/1
f 39/3/1 37/3/1 36/3/1
f 40/3/1 37/3/1 39/3/1
f 46/3/1 42/3/1 41/3/1
f 47/4/1 46/4/1 45/4/1
f 48/3/1 42/3/1 46/3/1
f 48/4/1 46/4/1 47/4/1
f 49/3/1 42/3/1 48/3/1
f 52/2/1 51/2/1 50/2/1
f 53/2/1 51/2/1 52/2/1
f 56/3/1 55/3/1 54/3/1
f 57/3/1 55/3/1 56/3/1
f 60/3/1 44/3/1 43/3/1
f 61/3/1 44/3/1 60/3/1
f 62/3/1 58/3/1 57/3/1
f 63/3/1 58/3/1 62/3/1
f 66/3/1 60/3/1 59/3/1
f 67/3/1 60/3/1 66/3/1
f 68/3/1 64/3/1 63/3/1
f 69/3/1 64/3/1 68/3/1
f 70/3/1 66/3/1 65/3/1
f 71/3/1 66/3/1 70/3/1
f 74/1/1 73/1/1 72/1/1
f 75/1/1 73/1/1 74/1/1
f 78/1/1 77/1/1 76/1/1
f 79/1/1 77/1/1 78/1/1
f 82/4/1 81/4/1 80/4/1
f 83/4/1 81/4/1 82/4/1
f 88/3/1 85/3/1 84/3/1
f 89/3/1 85/3/1 88/3/1
f 92/3/1 87/3/1 86/3/1
f 93/3/1 87/3/1 92/3/1
f 94/3/1 90/3/1 89/3/1
f 95/3/1 90/3/1 94/3/1
f 98/3/1 92/3/1 91/3/1
f 99/3/1 92/3/1 98/3/1
f 100/3/1 97/3/1 96/3/1
f 101/3/1 97/3/1 100/3/1
f 104/1/1 103/1/1 102/1/1
f 105/1/1 103/1/1 104/1/1
f 110/3/1 107/3/1 106/3/1
f 111/3/1 107/3/1 110/3/1
f 114/3/1 109/3/1 108/3/1
f 115/3/1 109/3/1 114/3/1
f 116/3/1 113/3/1 112/3/1
f 117/3/1 113/3/1 116/3/1
f 120/3/1 119/3/1 118/3/1
f 121/3/1 119/3/1 120/3/1
f 125/4/1 123/4/1 122/4/1
f 126/3/1 124/3/1 123/3/1
f 126/4/1 123/4/1 125/4/1
f 127/3/1 124/3/1 126/3/1
f 130/4/1 129/4/1 128/4/1
f 131/4/1 129/4/1 130/4/1
f 134/4/1 133/4/1 132/4/1
f 135/4/1 133/4/1 134/4/1
f 136/4/2 137/4/2 138/4/2
f 138/4/2 137/4/2 139/4/2
f 140/4/2 141/4/2 142/4/2
f 142/4/2 141/4/2 143/4/2
f 144/4/2 145/4/2 147/4/2
f 145/3/2 146/3/2 148/3/2
f 147/4/2 145/4/2 148/4/2
f 148/3/2 146/3/2 149/3/2
f 150/3/2 151/3/2 152/3/2
f 152/3/2 151/3/2 153/3/2
f 154/1/2 155/1/2 156/1/2
f 156/1/2 155/1/2 157/1/2
f 158/3/2 159/3/2 162/3/2
f 162/3/2 159/3/2 163/3/2
f 160/3/2 161/3/2 166/3/2
f 166/3/2 161/3/2 167/3/2
f 164/3/2 165/3/2 168/3/2
f 168/3/2 165/3/2 169/3/2
f 170/1/2 171/1/2 172/1/2
f 172/1/2 171/1/2 173/1/2
f 174/1/2 175/1/2 176/1/2
f 176/1/2 175/1/2 177/1/2
f 178/4/2 179/4/2 180/4/2
f 180/4/2 179/4/2 181/4/2
f 182/3/2 183/3/2 186/3/2
f 186/3/2 183/3/2 187/3/2
f 184/3/2 185/3/2 190/3/2
f 190/3/2 185/3/2 191/3/2
f 187/3/2 188/3/2 192/3/2
f 192/3/2 188/3/2 193/3/2
f 189/3/2 190/3/2 196/3/2
f 196/3/2 190/3/2 197/3/2
f 194/3/2 195/3/2 198/3/2
f 198/3/2 195/3/2 199/3/2
f 200/3/2 201/3/2 205/3/2
f 204/4/2 205/4/2 206/4/2
f 205/3/2 201/3/2 207/3/2
f 206/4/2 205/4/2 207/4/2
f 207/3/2 201/3/2 208/3/2
f 209/2/2 210/2/2 211/2/2
f 211/2/2 210/2/2 212/2/2
f 213/3/2 214/3/2 215/3/2
f 215/3/2 214/3/2 216/3/2
f 202/3/2 203/3/2 219/3/2
f 219/3/2 203/3/2 220/3/2
f 216/3/2 217/3/2 221/3/2
f 221/3/2 217/3/2 222/3/2
f 218/3/2 219/3/2 225/3/2
f 225/3/2 219/3/2 226/3/2
f 222/3/2 223/3/2 227/3/2
f 227/3/2 223/3/2 228/3/2
f 224/3/2 225/3/2 229/3/2
f 229/3/2 225/3/2 230/3/2
f 231/3/2 232/3/2 236/3/2
f 235/4/2 236/4/2 237/4/2
f 237/4/2 236/4/2 238/4/2
f 236/3/2 232/3/2 239/3/2
f 238/4/2 236/4/2 239/4/2
f 239/3/2 232/3/2 240/3/2
f 241/4/2 242/4/2 245/4/2
f 242/4/2 243/4/2 245/4/2
f 243/3/2 244/3/2 246/3/2
f 245/4/2 243/4/2 246/4/2
f 246/3/2 244/3/2 247/3/2
f 247/3/2 244/3/2 248/3/2
f 233/3/2 234/3/2 251/3/2
f 251/3/2 234/3/2 252/3/2
f 248/3/2 249/3/2 253/3/2
f 253/3/2 249/3/2 254/3/2
f 250/3/2 251/3/2 255/3/2
f 255/3/2 251/3/2 256/3/2
f 254/3/2 255/3/2 257/3/2
f 257/3/2 255/3/2 258/3/2
f 259/3/2 260/3/2 262/3/2
f 261/4/2 262/4/2 263/4/2
f 262/3/2 260/3/2 264/3/2
f 263/4/2 262/4/2 264/4/2
f 264/3/2 260/3/2 265/3/2
f 265/3/2 260/3/2 266/3/2
f 266/3/2 260/3/2 267/3/2
f 267/3/2 260/3/2 268/3/2
f 266/3/2 267/3/2 269/3/2
f 269/3/2 267/3/2 270/3/2
f 276/4/3 272/4/3 271/4/3
f 277/4/3 272/4/3 276/4/3
f 279/4/3 276/4/3 275/4/3
f 280/4/3 276/4/3 279/4/3
f 282/4/3 274/4/3 273/4/3
f 283/4/3 274/4/3 282/4/3
f 285/1/3 281/1/3 280/1/3
f 285/1/3 280/1/3 279/1/3
f 285/1/3 279/1/3 278/1/3
f 286/1/3 281/1/3 285/1/3
f 287/1/3 281/1/3 286/1/3
f 289/1/3 285/1/3 278/1/3
f 289/4/3 286/4/3 285/4/3
f 290/1/3 288/1/3 287/1/3
f 290/4/3 286/4/3 289/4/3
f 290/1/3 287/1/3 286/1/3
f 291/1/3 288/1/3 290/1/3
f 292/1/3 288/1/3 291/1/3
f 293/1/3 289/1/3 278/1/3
f 293/1/3 290/1/3 289/1/3
f 293/1/3 291/1/3 290/1/3
f 294/1/3 291/1/3 293/1/3
f 295/1/3 291/1/3 294/1/3
f 296/1/3 291/1/3 295/1/3
f 298/4/3 284/4/3 283/4/3
f 299/4/3 284/4/3 298/4/3
f 300/4/3 295/4/3 294/4/3
f 301/4/3 295/4/3 300/4/3
f 303/4/3 302/4/3 301/4/3
f 304/4/3 302/4/3 303/4/3
f 305/4/3 298/4/3 297/4/3
f 306/4/3 298/4/3 305/4/3
f 309/4/3 308/4/3 307/4/3
f 310/4/3 308/4/3 309/4/3
f 311/4/3 308/4/3 310/4/3
f 316/1/3 311/1/3 310/1/3
f 317/1/3 311/1/3 316/1/3
f 320/3/3 313/3/3 312/3/3
f 321/3/3 313/3/3 320/3/3
f 322/2/3 315/2/3 314/2/3
f 322/2/3 316/2/3 315/2/3
f 322/2/3 317/2/3 316/2/3
f 323/2/3 317/2/3 322/2/3
f 324/2/3 317/2/3 323/2/3
f 325/2/3 317/2/3 324/2/3
f 326/1/3 311/1/3 317/1/3
f 326/2/3 317/2/3 325/2/3
f 327/1/3 311/1/3 326/1/3
f 328/3/3 319/3/3 318/3/3
f 329/3/3 319/3/3 328/3/3
f 330/3/3 319/3/3 329/3/3
f 332/3/3 320/3/3 312/3/3
f 333/3/3 320/3/3 332/3/3
f 334/1/3 324/1/3 323/1/3
f 335/4/3 325/4/3 324/4/3
f 335/1/3 324/1/3 334/1/3
f 336/2/3 327/2/3 326/2/3
f 336/4/3 325/4/3 335/4/3
f 336/2/3 326/2/3 325/2/3
f 337/2/3 327/2/3 336/2/3
f 339/3/3 320/3/3 333/3/3
f 341/1/3 336/1/3 335/1/3
f 341/1/3 337/1/3 336/1/3
f 342/1/3 337/1/3 341/1/3
f 343/2/3 327/2/3 337/2/3
f 343/1/3 337/1/3 342/1/3
f 344/3/3 339/3/3 338/3/3
f 344/3/3 320/3/3 339/3/3
f 347/1/3 341/1/3 340/1/3
f 348/4/3 342/4/3 341/4/3
f 348/1/3 341/1/3 347/1/3
f 349/2/3 343/2/3 342/2/3
f 349/4/3 342/4/3 348/4/3
f 350/2/3 327/2/3 343/2/3
f 350/2/3 343/2/3 349/2/3
f 351/2/3 327/2/3 350/2/3
f 353/3/3 331/3/3 330/3/3
f 353/3/3 330/3/3 329/3/3
f 354/3/3 331/3/3 353/3/3
f 355/3/3 331/3/3 354/3/3
f 356/3/3 345/3/3 344/3/3
f 356/3/3 344/3/3 338/3/3
f 357/3/3 345/3/3 356/3/3
f 358/2/3 347/2/3 346/2/3
f 358/2/3 350/2/3 349/2/3
f 358/2/3 349/2/3 348/2/3
f 358/2/3 348/2/3 347/2/3
f 359/2/3 350/2/3 358/2/3
f 360/2/3 350/2/3 359/2/3
f 361/1/3 351/1/3 350/1/3
f 361/2/3 350/2/3 360/2/3
f 362/3/3 353/3/3 352/3/3
f 362/3/3 354/3/3 353/3/3
f 363/3/3 354/3/3 362/3/3
f 365/1/3 361/1/3 360/1/3
f 366/1/3 351/1/3 361/1/3
f 366/1/3 361/1/3 365/1/3
f 367/4/3 365/4/3 364/4/3
f 367/4/3 366/4/3 365/4/3
f 368/4/3 366/4/3 367/4/3
f 375/3/3 370/3/3 369/3/3
f 376/3/3 370/3/3 375/3/3
f 377/3/3 372/3/3 371/3/3
f 378/3/3 372/3/3 377/3/3
f 379/3/3 374/3/3 373/3/3
f 380/3/3 374/3/3 379/3/3
f 384/3/3 381/3/3 380/3/3
f 385/3/3 381/3/3 384/3/3
f 387/3/3 383/3/3 382/3/3
f 388/3/3 383/3/3 387/3/3
f 390/3/3 386/3/3 385/3/3
f 391/3/3 386/3/3 390/3/3
f 397/3/3 390/3/3 389/3/3
f 398/3/3 390/3/3 397/3/3
f 399/3/3 393/3/3 392/3/3
f 400/3/3 393/3/3 399/3/3
f 401/3/3 395/3/3 394/3/3
f 402/3/3 395/3/3 401/3/3
f 403/3/3 397/3/3 396/3/3
f 404/3/3 397/3/3 403/3/3
f 409/3/3 406/3/3 405/3/3
f 410/3/3 406/3/3 409/3/3
f 411/3/3 408/3/3 407/3/3
f 412/3/3 408/3/3 411/3/3
f 414/3/3 413/3/3 412/3/3
f 415/3/3 413/3/3 414/3/3
f 417/3/3 416/3/3 415/3/3
f 418/3/3 416/3/3 417/3/3
f 421/3/3 420/3/3 419/3/3
f 422/3/3 420/3/3 421/3/3
f 426/3/3 424/3/3 423/3/3
f 427/3/3 424/3/3 426/3/3
f 431/3/3 426/3/3 425/3/3
f 432/3/3 426/3/3 431/3/3
f 433/3/3 429/3/3 428/3/3
f 434/3/3 429/3/3 433/3/3
f 435/3/3 431/3/3 430/3/3
f 436/3/3 431/3/3 435/3/3
f 439/3/3 438/3/3 437/3/3
f 440/3/3 438/3/3 439/3/3
f 443/3/3 442/3/3 441/3/3
f 444/3/3 442/3/3 443/3/3
f 447/3/3 446/3/3 445/3/3
f 448/3/3 446/3/3 447/3/3
f 450/3/3 449/3/3 448/3/3
f 451/3/3 449/3/3 450/3/3
f 454/3/3 453/3/3 452/3/3
f 455/3/3 453/3/3 454/3/3
f 459/3/3 457/3/3 456/3/3
f 460/3/3 457/3/3 459/3/3
f 461/3/3 459/3/3 458/3/3
f 462/3/3 459/3/3 461/3/3
f 463/3/4 464/3/4 465/3/4
f 465/3/4 464/3/4 466/3/4
f 466/3/4 467/3/4 468/3/4
f 468/3/4 467/3/4 469/3/4
f 470/3/4 471/3/4 472/3/4
f 472/3/4 471/3/4 473/3/4
f 474/3/4 475/3/4 477/3/4
f 477/3/4 475/3/4 478/3/4
f 476/3/4 477/3/4 479/3/4
f 479/3/4 477/3/4 480/3/4
f 481/3/4 482/3/4 483/3/4
f 483/3/4 482/3/4 484/3/4
f 485/3/4 486/3/4 487/3/4
f 487/3/4 486/3/4 488/3/4
f 489/3/4 490/3/4 491/3/4
f 491/3/4 490/3/4 492/3/4
f 492/3/4 493/3/4 494/3/4
f 494/3/4 493/3/4 495/3/4
f 495/3/4 496/3/4 497/3/4
f 497/3/4 496/3/4 498/3/4
f 499/3/4 500/3/4 501/3/4
f 501/3/4 500/3/4 502/3/4
f 503/3/4 504/3/4 506/3/4
f 506/3/4 504/3/4 507/3/4
f 505/3/4 506/3/4 509/3/4
f 509/3/4 506/3/4 510/3/4
f 508/3/4 509/3/4 511/3/4
f 511/3/4 509/3/4 512/3/4
f 513/3/4 514/3/4 515/3/4
f 515/3/4 514/3/4 516/3/4
f 516/3/4 517/3/4 518/3/4
f 518/3/4 517/3/4 519/3/4
f 519/3/4 520/3/4 522/3/4
f 522/3/4 520/3/4 523/3/4
f 521/3/4 522/3/4 525/3/4
f 525/3/4 522/3/4 526/3/4
f 524/3/4 525/3/4 527/3/4
f 527/3/4 525/3/4 528/3/4
f 529/3/4 530/3/4 531/3/4
f 529/3/4 531/3/4 533/3/4
f 531/3/4 532/3/4 533/3/4
f 533/3/4 532/3/4 534/3/4
f 534/3/4 532/3/4 536/3/4
f 536/3/4 532/3/4 537/3/4
f 535/3/4 536/3/4 537/3/4
f 537/3/4 532/3/4 538/3/4
f 535/3/4 537/3/4 539/3/4
f 539/3/4 537/3/4 540/3/4
f 546/3/5 542/3/5 541/3/5
f 547/3/5 544/3/5 543/3/5
f 550/3/5 546/3/5 545/3/5
f 551/3/5 548/3/5 547/3/5
f 553/3/5 550/3/5 549/3/5
f 554/3/5 546/3/5 550/3/5
f 554/3/5 550/3/5 553/3/5
f 555/3/5 552/3/5 551/3/5
f 555/3/5 551/3/5 547/3/5
f 556/3/5 552/3/5 555/3/5
f 557/3/5 546/3/5 554/3/5
f 558/3/5 542/3/5 546/3/5
f 558/3/5 546/3/5 557/3/5
f 559/3/5 547/3/5 543/3/5
f 559/3/5 555/3/5 547/3/5
f 560/3/5 555/3/5 559/3/5
f 561/3/5 542/3/5 558/3/5
f 562/3/5 542/3/5 561/3/5
f 563/3/5 559/3/5 543/3/5
f 564/3/5 559/3/5 563/3/5
f 567/3/5 566/3/5 565/3/5
f 568/3/5 566/3/5 567/3/5
f 571/1/5 570/1/5 569/1/5
f 572/1/5 570/1/5 571/1/5
f 577/4/5 574/4/5 573/4/5
f 578/4/5 574/4/5 577/4/5
f 579/4/5 576/4/5 575/4/5
f 580/4/5 576/4/5 579/4/5
f 585/4/5 582/4/5 581/4/5
f 586/4/5 584/4/5 583/4/5
f 587/4/5 585/4/5 581/4/5
f 588/4/5 585/4/5 587/4/5
f 589/4/5 584/4/5 586/4/5
f 590/4/5 584/4/5 589/4/5
f 595/4/5 592/4/5 591/4/5
f 596/4/5 594/4/5 593/4/5
f 597/4/5 595/4/5 591/4/5
f 598/4/5 595/4/5 597/4/5
f 599/4/5 594/4/5 596/4/5
f 600/4/5 594/4/5 599/4/5
f 605/1/5 602/1/5 601/1/5
f 606/1/5 602/1/5 605/1/5
f 607/1/5 604/1/5 603/1/5
f 608/1/5 604/1/5 607/1/5
f 613/4/5 610/4/5 609/4/5
f 614/4/5 610/4/5 613/4/5
f 615/4/5 612/4/5 611/4/5
f 616/4/5 612/4/5 615/4/5
f 619/4/5 618/4/5 617/4/5
f 620/4/5 618/4/5 619/4/5
f 621/3/5 620/3/5 619/3/5
f 622/3/5 620/3/5 621/3/5
f 623/4/6 624/4/6 627/4/6
f 627/4/6 624/4/6 628/4/6
f 625/4/6 626/4/6 629/4/6
f 629/4/6 626/4/6 630/4/6
f 631/4/6 632/4/6 639/4/6
f 639/4/6 632/4/6 640/4/6
f 633/1/6 634/1/6 641/1/6
f 641/1/6 634/1/6 642/1/6
f 635/1/6 636/1/6 643/1/6
f 643/1/6 636/1/6 644/1/6
f 637/4/6 638/4/6 645/4/6
f 645/4/6 638/4/6 646/4/6
f 639/4/6 640/4/6 647/4/6
f 647/4/6 640/4/6 648/4/6
f 645/4/6 646/4/6 649/4/6
f 649/4/6 646/4/6 650/4/6
f 651/1/6 652/1/6 653/1/6
f 653/1/6 652/1/6 654/1/6
f 655/4/6 656/4/6 661/4/6
f 657/2/6 658/2/6 662/2/6
f 662/2/6 658/2/6 663/2/6
f 659/4/6 660/4/6 664/4/6
f 655/4/6 661/4/6 665/4/6
f 665/4/6 661/4/6 666/4/6
f 664/4/6 660/4/6 667/4/6
f 667/4/6 660/4/6 668/4/6
f 669/4/6 670/4/6 673/4/6
f 673/4/6 670/4/6 674/4/6
f 671/4/6 672/4/6 675/4/6
f 675/4/6 672/4/6 676/4/6
f 669/4/6 673/4/6 677/4/6
f 677/4/6 673/4/6 678/4/6
f 676/4/6 672/4/6 679/4/6
f 679/4/6 672/4/6 680/4/6
f 681/4/6 682/4/6 683/4/6
f 683/4/6 682/4/6 684/4/6
f 685/3/6 686/3/6 690/3/6
f 690/3/6 686/3/6 691/3/6
f 687/3/6 688/3/6 692/3/6
f 692/3/6 688/3/6 693/3/6
f 689/3/6 690/3/6 696/3/6
f 696/3/6 690/3/6 697/3/6
f 693/3/6 694/3/6 698/3/6
f 698/3/6 694/3/6 699/3/6
f 695/3/6 696/3/6 701/3/6
f 701/3/6 696/3/6 702/3/6
f 699/3/6 700/3/6 703/3/6
f 703/3/6 700/3/6 704/3/6
f 705/3/6 706/3/6 709/3/6
f 709/3/6 706/3/6 710/3/6
f 707/3/6 708/3/6 713/3/6
f 713/3/6 708/3/6 714/3/6
f 710/3/6 711/3/6 715/3/6
f 715/3/6 711/3/6 716/3/6
f 712/3/6 713/3/6 719/3/6
f 719/3/6 713/3/6 720/3/6
f 716/3/6 717/3/6 721/3/6
f 721/3/6 717/3/6 722/3/6
f 718/3/6 719/3/6 723/3/6
f 723/3/6 719/3/6 724/3/6
f 725/3/6 726/3/6 728/3/6
f 728/3/6 726/3/6 729/3/6
f 727/3/6 728/3/6 732/3/6
f 732/3/6 728/3/6 733/3/6
f 729/3/6 730/3/6 734/3/6
f 734/3/6 730/3/6 735/3/6
f 731/3/6 732/3/6 738/3/6
f 738/3/6 732/3/6 739/3/6
f 735/3/6 736/3/6 740/3/6
f 740/3/6 736/3/6 741/3/6
f 737/3/6 738/3/6 743/3/6
f 743/3/6 738/3/6 744/3/6
f 741/3/6 742/3/6 747/3/6
f 747/3/6 742/3/6 748/3/6
f 744/3/6 745/3/6 749/3/6
f 749/3/6 745/3/6 750/3/6
f 746/3/6 747/3/6 753/3/6
f 753/3/6 747/3/6 754/3/6
f 750/3/6 751/3/6 755/3/6
f 755/3/6 751/3/6 756/3/6
f 752/3/6 753/3/6 757/3/6
f 757/3/6 753/3/6 758/3/6
f 756/3/6 757/3/6 759/3/6
f 759/3/6 757/3/6 760/3/6
f 761/3/6 762/3/6 764/3/6
f 764/3/6 762/3/6 765/3/6
f 765/3/6 762/3/6 766/3/6
f 766/3/6 762/3/6 767/3/6
f 763/3/6 764/3/6 769/3/6
f 764/3/6 765/3/6 769/3/6
f 769/3/6 765/3/6 770/3/6
f 767/3/6 768/3/6 771/3/6
f 766/3/6 767/3/6 771/3/6
f 771/3/6 768/3/6 772/3/6
f 763/3/6 769/3/6 774/3/6
f 772/3/6 768/3/6 775/3/6
f 773/3/6 774/3/6 777/3/6
f 774/3/6 769/3/6 778/3/6
f 777/3/6 774/3/6 778/3/6
f 775/3/6 776/3/6 779/3/6
f 772/3/6 775/3/6 779/3/6
f 779/3/6 776/3/6 780/3/6
f 778/3/6 769/3/6 781/3/6
f 772/3/6 779/3/6 784/3/6
f 781/3/6 782/3/6 785/3/6
f 778/3/6 781/3/6 785/3/6
f 785/3/6 782/3/6 786/3/6
f 786/3/6 782/3/6 787/3/6
f 783/3/6 784/3/6 788/3/6
f 784/3/6 779/3/6 789/3/6
f 788/3/6 784/3/6 789/3/6
f 789/3/6 779/3/6 790/3/6
f 786/3/6 787/3/6 791/3/6
f 787/3/6 788/3/6 791/3/6
f 788/3/6 789/3/6 791/3/6
f 791/3/6 789/3/6 792/3/6
f 793/3/6 794/3/6 796/3/6
f 796/3/6 794/3/6 797/3/6
f 795/3/6 796/3/6 799/3/6
f 797/3/6 798/3/6 799/3/6
f 796/3/6 797/3/6 799/3/6
f 799/3/6 798/3/6 800/3/6
f 795/3/6 799/3/6 801/3/6
f 800/3/6 798/3/6 802/3/6
f 795/3/6 801/3/6 803/3/6
f 801/3/6 802/3/6 803/3/6
f 803/3/6 802/3/6 804/3/6
f 802/3/6 798/3/6 805/3/6
f 804/3/6 802/3/6 805/3/6
f 805/3/6 798/3/6 806/3/6
f 804/3/6 805/3/6 807/3/6
f 807/3/6 805/3/6 808/3/6
f 809/3/6 810/3/6 811/3/6
f 811/3/6 810/3/6 812/3/6
